<svg width="176" height="35" viewBox="0 0 176 35" fill="none" xmlns="http://www.w3.org/2000/svg">
<path d="M45.6792 15.0871C45.6792 13.6553 45.8648 12.339 46.236 11.1382C46.611 9.93368 47.1451 8.82573 47.8382 7.81436H49.0201C48.7473 8.18936 48.4917 8.65149 48.253 9.20073C48.0182 9.74618 47.8117 10.3466 47.6337 11.0019C47.4557 11.6534 47.3155 12.3276 47.2132 13.0246C47.1148 13.7216 47.0655 14.4091 47.0655 15.0871C47.0655 15.9886 47.1526 16.9034 47.3269 17.8314C47.5011 18.7594 47.736 19.6212 48.0314 20.4166C48.3269 21.2121 48.6564 21.8598 49.0201 22.3598H47.8382C47.1451 21.3485 46.611 20.2424 46.236 19.0416C45.8648 17.8371 45.6792 16.5189 45.6792 15.0871ZM50.7033 18.5189V17.3598L55.8169 9.26891H56.6578V11.0644H56.0897L52.226 17.178V17.2689H59.1124V18.5189H50.7033ZM56.1806 20.9053V18.1666V17.6269V9.26891H57.5215V20.9053H56.1806ZM65.0371 21.0644C64.181 21.0644 63.4519 20.8314 62.8496 20.3655C62.2473 19.8958 61.7871 19.2159 61.4689 18.3257C61.1507 17.4318 60.9917 16.3522 60.9917 15.0871C60.9917 13.8295 61.1507 12.7557 61.4689 11.8655C61.7909 10.9716 62.253 10.2897 62.8553 9.82005C63.4614 9.34656 64.1886 9.10982 65.0371 9.10982C65.8856 9.10982 66.611 9.34656 67.2132 9.82005C67.8193 10.2897 68.2814 10.9716 68.5996 11.8655C68.9216 12.7557 69.0826 13.8295 69.0826 15.0871C69.0826 16.3522 68.9235 17.4318 68.6053 18.3257C68.2871 19.2159 67.8269 19.8958 67.2246 20.3655C66.6223 20.8314 65.8932 21.0644 65.0371 21.0644ZM65.0371 19.8144C65.8856 19.8144 66.5447 19.4053 67.0144 18.5871C67.4841 17.7689 67.7189 16.6022 67.7189 15.0871C67.7189 14.0795 67.611 13.2216 67.3951 12.5132C67.1829 11.8049 66.8761 11.2651 66.4746 10.8939C66.0769 10.5227 65.5977 10.3371 65.0371 10.3371C64.1962 10.3371 63.539 10.7519 63.0655 11.5814C62.592 12.4072 62.3553 13.5757 62.3553 15.0871C62.3553 16.0947 62.4614 16.9507 62.6735 17.6553C62.8856 18.3598 63.1905 18.8958 63.5882 19.2632C63.9898 19.6307 64.4727 19.8144 65.0371 19.8144ZM70.9689 18.5189V17.3598L76.0826 9.26891H76.9235V11.0644H76.3553L72.4917 17.178V17.2689H79.378V18.5189H70.9689ZM76.4462 20.9053V18.1666V17.6269V9.26891H77.7871V20.9053H76.4462ZM84.3936 15.0871C84.3936 16.5189 84.2061 17.8371 83.8311 19.0416C83.4599 20.2424 82.9277 21.3485 82.2346 22.3598H81.0527C81.3255 21.9848 81.5792 21.5227 81.8141 20.9735C82.0527 20.428 82.2611 19.8295 82.4391 19.178C82.6171 18.5227 82.7554 17.8466 82.8539 17.1496C82.9561 16.4488 83.0073 15.7613 83.0073 15.0871C83.0073 14.1856 82.9202 13.2708 82.7459 12.3428C82.5717 11.4147 82.3368 10.553 82.0414 9.75755C81.7459 8.96209 81.4164 8.31436 81.0527 7.81436H82.2346C82.9277 8.82573 83.4599 9.93368 83.8311 11.1382C84.2061 12.339 84.3936 13.6553 84.3936 15.0871ZM95.5314 21.0644C94.7511 21.0644 94.0617 20.9261 93.4632 20.6496C92.8685 20.3693 92.4045 19.9848 92.0712 19.4962C91.7379 19.0038 91.5731 18.4432 91.5769 17.8144C91.5731 17.3219 91.6697 16.8674 91.8667 16.4507C92.0636 16.0303 92.3326 15.6799 92.6735 15.3996C93.0182 15.1155 93.4026 14.9356 93.8269 14.8598V14.7916C93.2701 14.6477 92.8269 14.3352 92.4973 13.8541C92.1678 13.3693 92.0049 12.8182 92.0087 12.2007C92.0049 11.6098 92.1545 11.0814 92.4576 10.6155C92.7606 10.1496 93.1773 9.78217 93.7076 9.51323C94.2417 9.24429 94.8496 9.10982 95.5314 9.10982C96.2057 9.10982 96.8079 9.24429 97.3382 9.51323C97.8685 9.78217 98.2852 10.1496 98.5882 10.6155C98.8951 11.0814 99.0504 11.6098 99.0542 12.2007C99.0504 12.8182 98.8818 13.3693 98.5485 13.8541C98.2189 14.3352 97.7814 14.6477 97.236 14.7916V14.8598C97.6564 14.9356 98.0352 15.1155 98.3723 15.3996C98.7095 15.6799 98.9784 16.0303 99.1792 16.4507C99.3799 16.8674 99.4822 17.3219 99.486 17.8144C99.4822 18.4432 99.3117 19.0038 98.9746 19.4962C98.6413 19.9848 98.1773 20.3693 97.5826 20.6496C96.9917 20.9261 96.3079 21.0644 95.5314 21.0644ZM95.5314 19.8144C96.0579 19.8144 96.5125 19.7291 96.8951 19.5587C97.2776 19.3882 97.5731 19.1477 97.7814 18.8371C97.9898 18.5265 98.0958 18.1628 98.0996 17.7462C98.0958 17.3068 97.9822 16.9185 97.7587 16.5814C97.5352 16.2443 97.2303 15.9791 96.8439 15.786C96.4614 15.5928 96.0239 15.4962 95.5314 15.4962C95.0352 15.4962 94.592 15.5928 94.2019 15.786C93.8155 15.9791 93.5106 16.2443 93.2871 16.5814C93.0674 16.9185 92.9595 17.3068 92.9632 17.7462C92.9595 18.1628 93.0598 18.5265 93.2644 18.8371C93.4727 19.1477 93.7701 19.3882 94.1564 19.5587C94.5428 19.7291 95.0011 19.8144 95.5314 19.8144ZM95.5314 14.2916C95.9481 14.2916 96.3174 14.2083 96.6394 14.0416C96.9651 13.875 97.2208 13.642 97.4064 13.3428C97.592 13.0435 97.6867 12.6932 97.6905 12.2916C97.6867 11.8977 97.5939 11.5549 97.4121 11.2632C97.2303 10.9678 96.9784 10.7405 96.6564 10.5814C96.3345 10.4185 95.9595 10.3371 95.5314 10.3371C95.0958 10.3371 94.7151 10.4185 94.3894 10.5814C94.0636 10.7405 93.8117 10.9678 93.6337 11.2632C93.4557 11.5549 93.3685 11.8977 93.3723 12.2916C93.3685 12.6932 93.4576 13.0435 93.6394 13.3428C93.825 13.642 94.0807 13.875 94.4064 14.0416C94.7322 14.2083 95.1072 14.2916 95.5314 14.2916ZM105.3 21.0644C104.633 21.0644 104.033 20.9318 103.499 20.6666C102.965 20.4015 102.537 20.0378 102.215 19.5757C101.893 19.1136 101.717 18.5871 101.686 17.9962H103.05C103.103 18.5227 103.342 18.9583 103.766 19.303C104.194 19.6439 104.705 19.8144 105.3 19.8144C105.777 19.8144 106.201 19.7026 106.573 19.4791C106.948 19.2557 107.241 18.9488 107.453 18.5587C107.669 18.1647 107.777 17.7197 107.777 17.2235C107.777 16.7159 107.665 16.2632 107.442 15.8655C107.222 15.464 106.919 15.1477 106.533 14.9166C106.146 14.6856 105.705 14.5682 105.209 14.5644C104.853 14.5606 104.487 14.6155 104.112 14.7291C103.737 14.839 103.429 14.981 103.186 15.1553L101.868 14.9962L102.573 9.26891H108.618V10.5189H103.754L103.345 13.9507H103.414C103.652 13.7613 103.951 13.6041 104.311 13.4791C104.671 13.3541 105.046 13.2916 105.436 13.2916C106.148 13.2916 106.783 13.4621 107.34 13.803C107.9 14.1401 108.34 14.6022 108.658 15.1894C108.98 15.7765 109.141 16.4469 109.141 17.2007C109.141 17.9432 108.974 18.606 108.641 19.1894C108.311 19.7689 107.857 20.2272 107.277 20.5644C106.698 20.8977 106.039 21.0644 105.3 21.0644ZM115.193 21.0644C114.337 21.0644 113.608 20.8314 113.006 20.3655C112.404 19.8958 111.943 19.2159 111.625 18.3257C111.307 17.4318 111.148 16.3522 111.148 15.0871C111.148 13.8295 111.307 12.7557 111.625 11.8655C111.947 10.9716 112.409 10.2897 113.012 9.82005C113.618 9.34656 114.345 9.10982 115.193 9.10982C116.042 9.10982 116.767 9.34656 117.369 9.82005C117.976 10.2897 118.438 10.9716 118.756 11.8655C119.078 12.7557 119.239 13.8295 119.239 15.0871C119.239 16.3522 119.08 17.4318 118.762 18.3257C118.443 19.2159 117.983 19.8958 117.381 20.3655C116.779 20.8314 116.049 21.0644 115.193 21.0644ZM115.193 19.8144C116.042 19.8144 116.701 19.4053 117.171 18.5871C117.64 17.7689 117.875 16.6022 117.875 15.0871C117.875 14.0795 117.767 13.2216 117.551 12.5132C117.339 11.8049 117.032 11.2651 116.631 10.8939C116.233 10.5227 115.754 10.3371 115.193 10.3371C114.352 10.3371 113.695 10.7519 113.222 11.5814C112.748 12.4072 112.512 13.5757 112.512 15.0871C112.512 16.0947 112.618 16.9507 112.83 17.6553C113.042 18.3598 113.347 18.8958 113.744 19.2632C114.146 19.6307 114.629 19.8144 115.193 19.8144ZM130.921 14.4621V15.7121H125.83V14.4621H130.921ZM138.121 20.9053L143.325 10.6098V10.5189H137.325V9.26891H144.78V10.5871L139.598 20.9053H138.121ZM150.443 21.0644C149.587 21.0644 148.858 20.8314 148.256 20.3655C147.654 19.8958 147.193 19.2159 146.875 18.3257C146.557 17.4318 146.398 16.3522 146.398 15.0871C146.398 13.8295 146.557 12.7557 146.875 11.8655C147.197 10.9716 147.659 10.2897 148.262 9.82005C148.868 9.34656 149.595 9.10982 150.443 9.10982C151.292 9.10982 152.017 9.34656 152.619 9.82005C153.226 10.2897 153.688 10.9716 154.006 11.8655C154.328 12.7557 154.489 13.8295 154.489 15.0871C154.489 16.3522 154.33 17.4318 154.012 18.3257C153.693 19.2159 153.233 19.8958 152.631 20.3655C152.029 20.8314 151.299 21.0644 150.443 21.0644ZM150.443 19.8144C151.292 19.8144 151.951 19.4053 152.421 18.5871C152.89 17.7689 153.125 16.6022 153.125 15.0871C153.125 14.0795 153.017 13.2216 152.801 12.5132C152.589 11.8049 152.282 11.2651 151.881 10.8939C151.483 10.5227 151.004 10.3371 150.443 10.3371C149.602 10.3371 148.945 10.7519 148.472 11.5814C147.998 12.4072 147.762 13.5757 147.762 15.0871C147.762 16.0947 147.868 16.9507 148.08 17.6553C148.292 18.3598 148.597 18.8958 148.994 19.2632C149.396 19.6307 149.879 19.8144 150.443 19.8144ZM160.375 21.0644C159.595 21.0644 158.905 20.9261 158.307 20.6496C157.712 20.3693 157.248 19.9848 156.915 19.4962C156.582 19.0038 156.417 18.4432 156.421 17.8144C156.417 17.3219 156.513 16.8674 156.71 16.4507C156.907 16.0303 157.176 15.6799 157.517 15.3996C157.862 15.1155 158.246 14.9356 158.671 14.8598V14.7916C158.114 14.6477 157.671 14.3352 157.341 13.8541C157.012 13.3693 156.849 12.8182 156.852 12.2007C156.849 11.6098 156.998 11.0814 157.301 10.6155C157.604 10.1496 158.021 9.78217 158.551 9.51323C159.085 9.24429 159.693 9.10982 160.375 9.10982C161.049 9.10982 161.652 9.24429 162.182 9.51323C162.712 9.78217 163.129 10.1496 163.432 10.6155C163.739 11.0814 163.894 11.6098 163.898 12.2007C163.894 12.8182 163.726 13.3693 163.392 13.8541C163.063 14.3352 162.625 14.6477 162.08 14.7916V14.8598C162.5 14.9356 162.879 15.1155 163.216 15.3996C163.553 15.6799 163.822 16.0303 164.023 16.4507C164.224 16.8674 164.326 17.3219 164.33 17.8144C164.326 18.4432 164.155 19.0038 163.818 19.4962C163.485 19.9848 163.021 20.3693 162.426 20.6496C161.835 20.9261 161.152 21.0644 160.375 21.0644ZM160.375 19.8144C160.902 19.8144 161.356 19.7291 161.739 19.5587C162.121 19.3882 162.417 19.1477 162.625 18.8371C162.834 18.5265 162.94 18.1628 162.943 17.7462C162.94 17.3068 162.826 16.9185 162.602 16.5814C162.379 16.2443 162.074 15.9791 161.688 15.786C161.305 15.5928 160.868 15.4962 160.375 15.4962C159.879 15.4962 159.436 15.5928 159.046 15.786C158.659 15.9791 158.354 16.2443 158.131 16.5814C157.911 16.9185 157.803 17.3068 157.807 17.7462C157.803 18.1628 157.904 18.5265 158.108 18.8371C158.316 19.1477 158.614 19.3882 159 19.5587C159.387 19.7291 159.845 19.8144 160.375 19.8144ZM160.375 14.2916C160.792 14.2916 161.161 14.2083 161.483 14.0416C161.809 13.875 162.065 13.642 162.25 13.3428C162.436 13.0435 162.53 12.6932 162.534 12.2916C162.53 11.8977 162.438 11.5549 162.256 11.2632C162.074 10.9678 161.822 10.7405 161.5 10.5814C161.178 10.4185 160.803 10.3371 160.375 10.3371C159.94 10.3371 159.559 10.4185 159.233 10.5814C158.907 10.7405 158.655 10.9678 158.477 11.2632C158.299 11.5549 158.212 11.8977 158.216 12.2916C158.212 12.6932 158.301 13.0435 158.483 13.3428C158.669 13.642 158.924 13.875 159.25 14.0416C159.576 14.2083 159.951 14.2916 160.375 14.2916ZM170.303 21.0644C169.447 21.0644 168.718 20.8314 168.115 20.3655C167.513 19.8958 167.053 19.2159 166.735 18.3257C166.416 17.4318 166.257 16.3522 166.257 15.0871C166.257 13.8295 166.416 12.7557 166.735 11.8655C167.057 10.9716 167.519 10.2897 168.121 9.82005C168.727 9.34656 169.454 9.10982 170.303 9.10982C171.151 9.10982 171.877 9.34656 172.479 9.82005C173.085 10.2897 173.547 10.9716 173.865 11.8655C174.187 12.7557 174.348 13.8295 174.348 15.0871C174.348 16.3522 174.189 17.4318 173.871 18.3257C173.553 19.2159 173.093 19.8958 172.49 20.3655C171.888 20.8314 171.159 21.0644 170.303 21.0644ZM170.303 19.8144C171.151 19.8144 171.81 19.4053 172.28 18.5871C172.75 17.7689 172.985 16.6022 172.985 15.0871C172.985 14.0795 172.877 13.2216 172.661 12.5132C172.449 11.8049 172.142 11.2651 171.74 10.8939C171.343 10.5227 170.863 10.3371 170.303 10.3371C169.462 10.3371 168.805 10.7519 168.331 11.5814C167.858 12.4072 167.621 13.5757 167.621 15.0871C167.621 16.0947 167.727 16.9507 167.939 17.6553C168.151 18.3598 168.456 18.8958 168.854 19.2632C169.255 19.6307 169.738 19.8144 170.303 19.8144Z" fill="white"/>
<circle cx="17.7993" cy="17.312" r="17.312" fill="#085FBA"/>
<path d="M17.7999 20.1927C19.3916 20.1927 20.6819 18.9024 20.6819 17.3107C20.6819 15.719 19.3916 14.4287 17.7999 14.4287C16.2083 14.4287 14.918 15.719 14.918 17.3107C14.918 18.9024 16.2083 20.1927 17.7999 20.1927Z" stroke="white" stroke-linecap="round" stroke-linejoin="round"/>
<path d="M21.6254 23.0746C20.3415 23.927 18.8098 24.3262 17.2732 24.209C15.7366 24.0917 14.2832 23.4646 13.1436 22.4273C12.004 21.3899 11.2434 20.0017 10.9826 18.4828C10.7218 16.964 10.9757 15.4016 11.704 14.0435C12.4322 12.6854 13.5932 11.6094 15.0027 10.9862C16.4121 10.3631 17.9893 10.2285 19.4839 10.6037C20.9786 10.979 22.3051 11.8427 23.2531 13.0577C24.201 14.2728 24.716 15.7696 24.7163 17.3106C24.7163 18.9029 24.1399 20.1926 22.6989 20.1926C21.2579 20.1926 20.6815 18.9029 20.6815 17.3106V14.4287" stroke="white" stroke-linecap="round" stroke-linejoin="round"/>
</svg>
