<svg width="176" height="35" viewBox="0 0 176 35" fill="none" xmlns="http://www.w3.org/2000/svg">
<path d="M45.1919 15.0871C45.1919 13.6553 45.3775 12.339 45.7487 11.1382C46.1237 9.93368 46.6578 8.82573 47.3509 7.81436H48.5328C48.26 8.18936 48.0044 8.65149 47.7657 9.20073C47.5309 9.74618 47.3244 10.3466 47.1464 11.0019C46.9684 11.6534 46.8282 12.3276 46.7259 13.0246C46.6275 13.7216 46.5782 14.4091 46.5782 15.0871C46.5782 15.9886 46.6653 16.9034 46.8396 17.8314C47.0138 18.7594 47.2487 19.6212 47.5441 20.4166C47.8396 21.2121 48.1691 21.8598 48.5328 22.3598H47.3509C46.6578 21.3485 46.1237 20.2424 45.7487 19.0416C45.3775 17.8371 45.1919 16.5189 45.1919 15.0871ZM50.216 18.5189V17.3598L55.3296 9.26891H56.1705V11.0644H55.6024L51.7387 17.178V17.2689H58.6251V18.5189H50.216ZM55.6933 20.9053V18.1666V17.6269V9.26891H57.0342V20.9053H55.6933ZM64.5498 21.0644C63.6937 21.0644 62.9646 20.8314 62.3623 20.3655C61.76 19.8958 61.2998 19.2159 60.9816 18.3257C60.6634 17.4318 60.5044 16.3522 60.5044 15.0871C60.5044 13.8295 60.6634 12.7557 60.9816 11.8655C61.3036 10.9716 61.7657 10.2897 62.368 9.82005C62.974 9.34656 63.7013 9.10982 64.5498 9.10982C65.3983 9.10982 66.1237 9.34656 66.7259 9.82005C67.332 10.2897 67.7941 10.9716 68.1123 11.8655C68.4343 12.7557 68.5953 13.8295 68.5953 15.0871C68.5953 16.3522 68.4362 17.4318 68.118 18.3257C67.7998 19.2159 67.3396 19.8958 66.7373 20.3655C66.135 20.8314 65.4059 21.0644 64.5498 21.0644ZM64.5498 19.8144C65.3983 19.8144 66.0574 19.4053 66.5271 18.5871C66.9968 17.7689 67.2316 16.6022 67.2316 15.0871C67.2316 14.0795 67.1237 13.2216 66.9078 12.5132C66.6956 11.8049 66.3888 11.2651 65.9873 10.8939C65.5896 10.5227 65.1104 10.3371 64.5498 10.3371C63.7089 10.3371 63.0517 10.7519 62.5782 11.5814C62.1047 12.4072 61.868 13.5757 61.868 15.0871C61.868 16.0947 61.974 16.9507 62.1862 17.6553C62.3983 18.3598 62.7032 18.8958 63.1009 19.2632C63.5025 19.6307 63.9854 19.8144 64.5498 19.8144ZM70.4816 18.5189V17.3598L75.5953 9.26891H76.4362V11.0644H75.868L72.0044 17.178V17.2689H78.8907V18.5189H70.4816ZM75.9589 20.9053V18.1666V17.6269V9.26891H77.2998V20.9053H75.9589ZM83.9063 15.0871C83.9063 16.5189 83.7188 17.8371 83.3438 19.0416C82.9726 20.2424 82.4404 21.3485 81.7472 22.3598H80.5654C80.8382 21.9848 81.0919 21.5227 81.3268 20.9735C81.5654 20.428 81.7738 19.8295 81.9518 19.178C82.1298 18.5227 82.2681 17.8466 82.3666 17.1496C82.4688 16.4488 82.52 15.7613 82.52 15.0871C82.52 14.1856 82.4329 13.2708 82.2586 12.3428C82.0844 11.4147 81.8495 10.553 81.5541 9.75755C81.2586 8.96209 80.9291 8.31436 80.5654 7.81436H81.7472C82.4404 8.82573 82.9726 9.93368 83.3438 11.1382C83.7188 12.339 83.9063 13.6553 83.9063 15.0871ZM95.0441 21.0644C94.2638 21.0644 93.5744 20.9261 92.9759 20.6496C92.3812 20.3693 91.9172 19.9848 91.5839 19.4962C91.2506 19.0038 91.0858 18.4432 91.0896 17.8144C91.0858 17.3219 91.1824 16.8674 91.3794 16.4507C91.5763 16.0303 91.8453 15.6799 92.1862 15.3996C92.5309 15.1155 92.9153 14.9356 93.3396 14.8598V14.7916C92.7828 14.6477 92.3396 14.3352 92.01 13.8541C91.6805 13.3693 91.5176 12.8182 91.5214 12.2007C91.5176 11.6098 91.6672 11.0814 91.9703 10.6155C92.2733 10.1496 92.69 9.78217 93.2203 9.51323C93.7544 9.24429 94.3623 9.10982 95.0441 9.10982C95.7184 9.10982 96.3206 9.24429 96.8509 9.51323C97.3812 9.78217 97.7979 10.1496 98.1009 10.6155C98.4078 11.0814 98.5631 11.6098 98.5669 12.2007C98.5631 12.8182 98.3945 13.3693 98.0612 13.8541C97.7316 14.3352 97.2941 14.6477 96.7487 14.7916V14.8598C97.1691 14.9356 97.5479 15.1155 97.885 15.3996C98.2222 15.6799 98.4911 16.0303 98.6919 16.4507C98.8926 16.8674 98.9949 17.3219 98.9987 17.8144C98.9949 18.4432 98.8244 19.0038 98.4873 19.4962C98.154 19.9848 97.69 20.3693 97.0953 20.6496C96.5044 20.9261 95.8206 21.0644 95.0441 21.0644ZM95.0441 19.8144C95.5706 19.8144 96.0252 19.7291 96.4078 19.5587C96.7903 19.3882 97.0858 19.1477 97.2941 18.8371C97.5025 18.5265 97.6085 18.1628 97.6123 17.7462C97.6085 17.3068 97.4949 16.9185 97.2714 16.5814C97.0479 16.2443 96.743 15.9791 96.3566 15.786C95.974 15.5928 95.5365 15.4962 95.0441 15.4962C94.5479 15.4962 94.1047 15.5928 93.7146 15.786C93.3282 15.9791 93.0233 16.2443 92.7998 16.5814C92.5801 16.9185 92.4722 17.3068 92.4759 17.7462C92.4722 18.1628 92.5725 18.5265 92.7771 18.8371C92.9854 19.1477 93.2828 19.3882 93.6691 19.5587C94.0555 19.7291 94.5138 19.8144 95.0441 19.8144ZM95.0441 14.2916C95.4608 14.2916 95.8301 14.2083 96.1521 14.0416C96.4778 13.875 96.7335 13.642 96.9191 13.3428C97.1047 13.0435 97.1994 12.6932 97.2032 12.2916C97.1994 11.8977 97.1066 11.5549 96.9248 11.2632C96.743 10.9678 96.4911 10.7405 96.1691 10.5814C95.8472 10.4185 95.4722 10.3371 95.0441 10.3371C94.6085 10.3371 94.2278 10.4185 93.9021 10.5814C93.5763 10.7405 93.3244 10.9678 93.1464 11.2632C92.9684 11.5549 92.8812 11.8977 92.885 12.2916C92.8812 12.6932 92.9703 13.0435 93.1521 13.3428C93.3377 13.642 93.5934 13.875 93.9191 14.0416C94.2449 14.2083 94.6199 14.2916 95.0441 14.2916ZM104.813 21.0644C104.146 21.0644 103.546 20.9318 103.011 20.6666C102.477 20.4015 102.049 20.0378 101.727 19.5757C101.405 19.1136 101.229 18.5871 101.199 17.9962H102.563C102.616 18.5227 102.854 18.9583 103.278 19.303C103.707 19.6439 104.218 19.8144 104.813 19.8144C105.29 19.8144 105.714 19.7026 106.085 19.4791C106.46 19.2557 106.754 18.9488 106.966 18.5587C107.182 18.1647 107.29 17.7197 107.29 17.2235C107.29 16.7159 107.178 16.2632 106.955 15.8655C106.735 15.464 106.432 15.1477 106.046 14.9166C105.659 14.6856 105.218 14.5682 104.722 14.5644C104.366 14.5606 104 14.6155 103.625 14.7291C103.25 14.839 102.941 14.981 102.699 15.1553L101.381 14.9962L102.085 9.26891H108.131V10.5189H103.267L102.858 13.9507H102.926C103.165 13.7613 103.464 13.6041 103.824 13.4791C104.184 13.3541 104.559 13.2916 104.949 13.2916C105.661 13.2916 106.296 13.4621 106.852 13.803C107.413 14.1401 107.852 14.6022 108.171 15.1894C108.493 15.7765 108.653 16.4469 108.653 17.2007C108.653 17.9432 108.487 18.606 108.153 19.1894C107.824 19.7689 107.369 20.2272 106.79 20.5644C106.21 20.8977 105.551 21.0644 104.813 21.0644ZM114.706 21.0644C113.85 21.0644 113.121 20.8314 112.519 20.3655C111.916 19.8958 111.456 19.2159 111.138 18.3257C110.82 17.4318 110.661 16.3522 110.661 15.0871C110.661 13.8295 110.82 12.7557 111.138 11.8655C111.46 10.9716 111.922 10.2897 112.524 9.82005C113.13 9.34656 113.858 9.10982 114.706 9.10982C115.555 9.10982 116.28 9.34656 116.882 9.82005C117.488 10.2897 117.95 10.9716 118.269 11.8655C118.591 12.7557 118.752 13.8295 118.752 15.0871C118.752 16.3522 118.592 17.4318 118.274 18.3257C117.956 19.2159 117.496 19.8958 116.894 20.3655C116.291 20.8314 115.562 21.0644 114.706 21.0644ZM114.706 19.8144C115.555 19.8144 116.214 19.4053 116.683 18.5871C117.153 17.7689 117.388 16.6022 117.388 15.0871C117.388 14.0795 117.28 13.2216 117.064 12.5132C116.852 11.8049 116.545 11.2651 116.144 10.8939C115.746 10.5227 115.267 10.3371 114.706 10.3371C113.865 10.3371 113.208 10.7519 112.734 11.5814C112.261 12.4072 112.024 13.5757 112.024 15.0871C112.024 16.0947 112.13 16.9507 112.342 17.6553C112.555 18.3598 112.859 18.8958 113.257 19.2632C113.659 19.6307 114.142 19.8144 114.706 19.8144ZM130.433 14.4621V15.7121H125.342V14.4621H130.433ZM137.634 20.9053L142.838 10.6098V10.5189H136.838V9.26891H144.293V10.5871L139.111 20.9053H137.634ZM149.956 21.0644C149.1 21.0644 148.371 20.8314 147.769 20.3655C147.166 19.8958 146.706 19.2159 146.388 18.3257C146.07 17.4318 145.911 16.3522 145.911 15.0871C145.911 13.8295 146.07 12.7557 146.388 11.8655C146.71 10.9716 147.172 10.2897 147.774 9.82005C148.38 9.34656 149.108 9.10982 149.956 9.10982C150.805 9.10982 151.53 9.34656 152.132 9.82005C152.738 10.2897 153.2 10.9716 153.519 11.8655C153.841 12.7557 154.002 13.8295 154.002 15.0871C154.002 16.3522 153.842 17.4318 153.524 18.3257C153.206 19.2159 152.746 19.8958 152.144 20.3655C151.541 20.8314 150.812 21.0644 149.956 21.0644ZM149.956 19.8144C150.805 19.8144 151.464 19.4053 151.933 18.5871C152.403 17.7689 152.638 16.6022 152.638 15.0871C152.638 14.0795 152.53 13.2216 152.314 12.5132C152.102 11.8049 151.795 11.2651 151.394 10.8939C150.996 10.5227 150.517 10.3371 149.956 10.3371C149.115 10.3371 148.458 10.7519 147.984 11.5814C147.511 12.4072 147.274 13.5757 147.274 15.0871C147.274 16.0947 147.38 16.9507 147.592 17.6553C147.805 18.3598 148.109 18.8958 148.507 19.2632C148.909 19.6307 149.392 19.8144 149.956 19.8144ZM159.888 21.0644C159.108 21.0644 158.418 20.9261 157.82 20.6496C157.225 20.3693 156.761 19.9848 156.428 19.4962C156.094 19.0038 155.93 18.4432 155.933 17.8144C155.93 17.3219 156.026 16.8674 156.223 16.4507C156.42 16.0303 156.689 15.6799 157.03 15.3996C157.375 15.1155 157.759 14.9356 158.183 14.8598V14.7916C157.627 14.6477 157.183 14.3352 156.854 13.8541C156.524 13.3693 156.361 12.8182 156.365 12.2007C156.361 11.6098 156.511 11.0814 156.814 10.6155C157.117 10.1496 157.534 9.78217 158.064 9.51323C158.598 9.24429 159.206 9.10982 159.888 9.10982C160.562 9.10982 161.164 9.24429 161.695 9.51323C162.225 9.78217 162.642 10.1496 162.945 10.6155C163.252 11.0814 163.407 11.6098 163.411 12.2007C163.407 12.8182 163.238 13.3693 162.905 13.8541C162.575 14.3352 162.138 14.6477 161.592 14.7916V14.8598C162.013 14.9356 162.392 15.1155 162.729 15.3996C163.066 15.6799 163.335 16.0303 163.536 16.4507C163.736 16.8674 163.839 17.3219 163.842 17.8144C163.839 18.4432 163.668 19.0038 163.331 19.4962C162.998 19.9848 162.534 20.3693 161.939 20.6496C161.348 20.9261 160.664 21.0644 159.888 21.0644ZM159.888 19.8144C160.414 19.8144 160.869 19.7291 161.252 19.5587C161.634 19.3882 161.93 19.1477 162.138 18.8371C162.346 18.5265 162.452 18.1628 162.456 17.7462C162.452 17.3068 162.339 16.9185 162.115 16.5814C161.892 16.2443 161.587 15.9791 161.2 15.786C160.818 15.5928 160.38 15.4962 159.888 15.4962C159.392 15.4962 158.948 15.5928 158.558 15.786C158.172 15.9791 157.867 16.2443 157.644 16.5814C157.424 16.9185 157.316 17.3068 157.32 17.7462C157.316 18.1628 157.416 18.5265 157.621 18.8371C157.829 19.1477 158.127 19.3882 158.513 19.5587C158.899 19.7291 159.358 19.8144 159.888 19.8144ZM159.888 14.2916C160.305 14.2916 160.674 14.2083 160.996 14.0416C161.322 13.875 161.577 13.642 161.763 13.3428C161.948 13.0435 162.043 12.6932 162.047 12.2916C162.043 11.8977 161.95 11.5549 161.769 11.2632C161.587 10.9678 161.335 10.7405 161.013 10.5814C160.691 10.4185 160.316 10.3371 159.888 10.3371C159.452 10.3371 159.072 10.4185 158.746 10.5814C158.42 10.7405 158.168 10.9678 157.99 11.2632C157.812 11.5549 157.725 11.8977 157.729 12.2916C157.725 12.6932 157.814 13.0435 157.996 13.3428C158.181 13.642 158.437 13.875 158.763 14.0416C159.089 14.2083 159.464 14.2916 159.888 14.2916ZM169.815 21.0644C168.959 21.0644 168.23 20.8314 167.628 20.3655C167.026 19.8958 166.565 19.2159 166.247 18.3257C165.929 17.4318 165.77 16.3522 165.77 15.0871C165.77 13.8295 165.929 12.7557 166.247 11.8655C166.569 10.9716 167.031 10.2897 167.634 9.82005C168.24 9.34656 168.967 9.10982 169.815 9.10982C170.664 9.10982 171.389 9.34656 171.992 9.82005C172.598 10.2897 173.06 10.9716 173.378 11.8655C173.7 12.7557 173.861 13.8295 173.861 15.0871C173.861 16.3522 173.702 17.4318 173.384 18.3257C173.065 19.2159 172.605 19.8958 172.003 20.3655C171.401 20.8314 170.671 21.0644 169.815 21.0644ZM169.815 19.8144C170.664 19.8144 171.323 19.4053 171.793 18.5871C172.262 17.7689 172.497 16.6022 172.497 15.0871C172.497 14.0795 172.389 13.2216 172.173 12.5132C171.961 11.8049 171.654 11.2651 171.253 10.8939C170.855 10.5227 170.376 10.3371 169.815 10.3371C168.975 10.3371 168.317 10.7519 167.844 11.5814C167.37 12.4072 167.134 13.5757 167.134 15.0871C167.134 16.0947 167.24 16.9507 167.452 17.6553C167.664 18.3598 167.969 18.8958 168.367 19.2632C168.768 19.6307 169.251 19.8144 169.815 19.8144Z" fill="white"/>
<circle cx="17.312" cy="17.312" r="17.312" fill="#095FBA"/>
<path d="M15.0346 17.5399C15.6321 18.7736 16.6297 19.7687 17.8649 20.3629C17.956 20.4061 18.0568 20.4248 18.1574 20.4171C18.2579 20.4095 18.3547 20.3758 18.4382 20.3194L20.2525 19.1074C20.3327 19.0531 20.4253 19.0199 20.5218 19.011C20.6182 19.0021 20.7153 19.0178 20.8041 19.0566L24.2004 20.5153C24.3165 20.5637 24.4135 20.6488 24.4764 20.7576C24.5394 20.8665 24.5648 20.993 24.5488 21.1177C24.4411 21.9579 24.031 22.7301 23.3952 23.2897C22.7594 23.8494 21.9414 24.1583 21.0944 24.1584C18.4768 24.1584 15.9663 23.1186 14.1154 21.2677C12.2645 19.4167 11.2246 16.9063 11.2246 14.2887C11.2248 13.4416 11.5336 12.6237 12.0933 11.9878C12.653 11.352 13.4252 10.9419 14.2654 10.8343C14.3901 10.8182 14.5166 10.8437 14.6254 10.9066C14.7343 10.9696 14.8194 11.0665 14.8677 11.1826L16.3264 14.5862C16.3643 14.6736 16.3802 14.7689 16.3726 14.8638C16.365 14.9587 16.3342 15.0503 16.2829 15.1305L15.0709 16.9738C15.017 17.0572 14.9853 17.153 14.9789 17.2521C14.9726 17.3512 14.9918 17.4503 15.0346 17.5399V17.5399Z" stroke="white" stroke-linecap="round" stroke-linejoin="round"/>
</svg>
