<svg width="15" height="15" viewBox="0 0 15 15" fill="none" xmlns="http://www.w3.org/2000/svg">
<path d="M7.01758 0.403809C5.63311 0.403809 4.27973 0.814351 3.12859 1.58352C1.97745 2.35269 1.08024 3.44594 0.550424 4.72502C0.0206111 6.00411 -0.118012 7.41157 0.152084 8.76944C0.422181 10.1273 1.08887 11.3746 2.06783 12.3536C3.0468 13.3325 4.29408 13.9992 5.65195 14.2693C7.00982 14.5394 8.41728 14.4008 9.69636 13.871C10.9754 13.3411 12.0687 12.4439 12.8379 11.2928C13.607 10.1417 14.0176 8.78828 14.0176 7.40381C14.014 5.54839 13.2754 3.76997 11.9634 2.45799C10.6514 1.14601 8.873 0.407366 7.01758 0.403809ZM9.83777 6.95958L7.41469 9.65188C7.36425 9.70697 7.30289 9.75096 7.23452 9.78106C7.16616 9.81116 7.09228 9.8267 7.01758 9.8267C6.94288 9.8267 6.869 9.81116 6.80063 9.78106C6.73227 9.75096 6.67091 9.70697 6.62046 9.65188L4.19739 6.95958C4.1046 6.85369 4.05698 6.71567 4.06473 6.57509C4.07247 6.43451 4.13497 6.30256 4.23883 6.20751C4.34268 6.11245 4.47964 6.06185 4.62035 6.06655C4.76106 6.07125 4.89434 6.13088 4.99162 6.23265L7.01758 8.48073L9.04354 6.23265C9.09079 6.17873 9.14833 6.13479 9.21279 6.1034C9.27724 6.07201 9.34732 6.05381 9.4189 6.04987C9.49049 6.04593 9.56214 6.05632 9.62965 6.08043C9.69717 6.10455 9.75919 6.1419 9.81207 6.19031C9.86496 6.23871 9.90765 6.29719 9.93763 6.36231C9.96762 6.42743 9.9843 6.49789 9.98669 6.56954C9.98908 6.64119 9.97714 6.7126 9.95157 6.77958C9.926 6.84656 9.88731 6.90775 9.83777 6.95958Z" fill="#0152A8"/>
</svg>
